<svg  viewBox="0 0 512 512" fill="#cc3f3f" xmlns="http://www.w3.org/2000/svg"><path d="m217.449219 417.941406c3.691406 5.011719 9.367187 8.171875 15.574219 8.660156.554687.042969 1.109374.066407 1.644531.066407 5.628906 0 11.070312-2.21875 15.082031-6.253907l122.664062-122.664062c8.34375-8.34375 8.34375-21.824219 0-30.164062-8.339843-8.34375-21.820312-8.34375-30.164062 0l-105.085938 105.085937-43.96875-59.945313c-6.976562-9.496093-20.332031-11.5625-29.824218-4.589843-9.492188 6.976562-11.5625 20.332031-4.585938 29.824219zm0 0"/><path d="m448 64h-21.332031v-42.667969c0-11.773437-9.558594-21.332031-21.335938-21.332031h-21.332031c-11.777344 0-21.332031 9.558594-21.332031 21.332031v42.667969h-213.335938v-42.667969c0-11.773437-9.554687-21.332031-21.332031-21.332031h-21.332031c-11.777344 0-21.335938 9.558594-21.335938 21.332031v42.667969h-21.332031c-35.285156 0-64 28.714844-64 64v320c0 35.285156 28.714844 64 64 64h384c35.285156 0 64-28.714844 64-64v-320c0-35.285156-28.714844-64-64-64zm21.332031 384c0 11.753906-9.578125 21.332031-21.332031 21.332031h-384c-11.753906 0-21.332031-9.578125-21.332031-21.332031v-233.8125h426.664062zm0 0"/></svg>