<svg height="512pt" viewBox="-4 0 511 512" width="512pt" xmlns="http://www.w3.org/2000/svg"><path d="m474.839844 292.460938h-.167969c-11.972656 0-22.222656 7.527343-26.261719 18.109374h-17.910156v-96.230468h17.070312v.101562c0 5.519532 4.480469 10 10 10 5.53125 0 10-4.480468 10-10v-20.191406c0-5.53125-4.46875-10-10-10-5.519531 0-10 4.46875-10 10v.089844h-17.070312v-97.558594h17.910156c4.039063 10.578125 14.289063 18.109375 26.261719 18.109375h.167969c15.488281 0 28.101562-12.609375 28.101562-28.109375s-12.613281-28.101562-28.101562-28.101562h-.167969c-11.972656 0-22.222656 7.53125-26.261719 18.101562h-17.910156v-46.191406c0-16.871094-13.71875-30.589844-30.589844-30.589844h-297.378906c-16.871094 0-30.589844 13.71875-30.589844 30.589844v46.191406h-11.070312v-.070312c0-5.519532-4.472656-10-10-10-5.519532 0-10 4.480468-10 10v20.1875c0 5.523437 4.480468 10 10 10 5.527344 0 10-4.476563 10-10v-.117188h11.070312v97.558594h-16.910156c-4.042969-10.570313-14.28125-18.109375-26.261719-18.109375h-.167969c-15.492187 0-28.101562 12.609375-28.101562 28.109375s12.609375 28.101562 28.101562 28.101562h.167969c11.96875 0 22.210938-7.519531 26.25-18.101562h16.921875v96.230468h-11.070312v-.082031c0-5.519531-4.472656-10-10-10-5.519532 0-10 4.480469-10 10v20.191407c0 5.519531 4.480468 10 10 10 5.527344 0 10-4.480469 10-10v-.109376h11.070312v87.550782h-16.910156c-4.042969-10.582032-14.28125-18.109375-26.261719-18.109375h-.167969c-15.492187 0-28.101562 12.609375-28.101562 28.109375s12.609375 28.097656 28.101562 28.097656h.167969c11.96875 0 22.210938-7.527344 26.25-18.097656h16.921875v43.289062c0 16.871094 13.71875 30.589844 30.589844 30.589844h1.410156c5.527344 0 10-4.480469 10-10s-4.472656-10-10-10h-1.410156c-5.839844 0-10.589844-4.75-10.589844-10.589844v-43.289062h17.796875v9.089844c0 5.519531 4.472657 10 10 10h72.480469c5.519531 0 10-4.480469 10-10v-9.089844h33.472656v9.089844c0 5.519531 4.46875 10 10 10h72.480469c5.519531 0 10-4.480469 10-10v-9.089844h82.328125v43.289062c0 5.839844-4.75 10.589844-10.589844 10.589844h-200.941406c-5.527344 0-10 4.480469-10 10s4.472656 10 10 10h200.941406c16.871094 0 30.589844-13.71875 30.589844-30.589844v-43.289062h17.070312v.089844c0 5.527343 4.480469 10 10 10 5.53125 0 10-4.472657 10-10v-20.191407c0-5.519531-4.46875-10-10-10-5.519531 0-10 4.480469-10 10v.101563h-17.070312v-87.550782h17.910156c4.039063 10.570313 14.289063 18.101563 26.261719 18.101563h.167969c15.488281 0 28.101562-12.613281 28.101562-28.113281s-12.613281-28.097656-28.101562-28.097656zm-.167969-213.78125h.167969c4.46875 0 8.101562 3.628906 8.101562 8.109374 0 4.460938-3.632812 8.101563-8.101562 8.101563h-.167969c-4.472656 0-8.101563-3.640625-8.101563-8.109375 0-4.472656 3.628907-8.101562 8.101563-8.101562zm-445.902344 133.761718h-.167969c-4.472656 0-8.101562-3.632812-8.101562-8.113281 0-4.457031 3.628906-8.097656 8.101562-8.097656h.167969c4.46875 0 8.101563 3.640625 8.101563 8.109375s-3.632813 8.101562-8.101563 8.101562zm-.078125 223.917969c-4.5625 0-8.25-3.6875-8.25-8.238281 0-4.5625 3.6875-8.25 8.25-8.25 4.546875 0 8.238282 3.6875 8.238282 8.25 0 4.550781-3.691407 8.238281-8.238282 8.238281zm153.527344.851563h-52.480469v-18.179688h52.480469zm125.953125 0h-52.480469v-18.179688h52.480469zm102.328125-19.089844h-82.328125v-9.089844c0-5.53125-4.480469-10-10-10h-72.480469c-5.53125 0-10 4.46875-10 10v9.089844h-33.472656v-9.089844c0-5.53125-4.480469-10-10-10h-72.480469c-5.527343 0-10 4.46875-10 10v9.089844h-17.796875v-87.550782h73.019532v9.101563c0 5.519531 4.480468 10 10 10h72.488281c5.519531 0 10-4.480469 10-10v-9.101563h33.472656v9.101563c0 5.519531 4.476563 10 10 10h77.488281c5.519532 0 10-4.480469 10-10v-9.101563h22.089844zm-225.539062-88.449219v-18.183594h52.488281v18.183594zm125.960937 0v-18.183594h57.488281v18.183594zm99.578125-19.101563h-22.089844v-9.082031c0-5.519531-4.480468-10-10-10h-77.488281c-5.523437 0-10 4.480469-10 10v9.082031h-33.472656v-9.082031c0-5.519531-4.480469-10-10-10h-72.488281c-5.519532 0-10 4.480469-10 10v9.082031h-73.019532v-96.230468h17.796875v9.089844c0 5.519531 4.472657 10 10 10h72.480469c5.519531 0 10-4.480469 10-10v-9.089844h33.472656v9.089844c0 5.519531 4.46875 10 10 10h72.480469c5.519531 0 10-4.480469 10-10v-9.089844h82.328125zm-280.761719-97.140624v-18.179688h52.480469v18.179688zm125.953125 0v-18.179688h52.480469v18.179688zm154.808594-19.089844h-82.328125v-9.089844c0-5.53125-4.480469-10-10-10h-72.480469c-5.53125 0-10 4.46875-10 10v9.089844h-33.472656v-9.089844c0-5.53125-4.480469-10-10-10h-72.480469c-5.527343 0-10 4.46875-10 10v9.089844h-17.796875v-97.558594h73.019532v9.109375c0 5.519531 4.480468 10 10 10h71.980468c5.519532 0 10-4.480469 10-10v-9.109375h33.980469v9.109375c0 5.519531 4.476563 10 10 10h77.488281c5.519532 0 10-4.480469 10-10v-9.109375h22.089844zm-225.539062-98.449219v-18.179687h51.980468v18.179687zm125.960937 0v-18.179687h57.488281v18.179687zm99.578125-19.109375h-22.089844v-9.070312c0-5.53125-4.480468-10-10-10h-77.488281c-5.523437 0-10 4.46875-10 10v9.070312h-33.980469v-9.070312c0-5.53125-4.480468-10-10-10h-71.980468c-5.519532 0-10 4.46875-10 10v9.070312h-73.019532v-46.191406c0-5.839844 4.75-10.589844 10.589844-10.589844h297.378906c5.839844 0 10.589844 4.75 10.589844 10.589844zm64.339844 251.890625h-.167969c-4.472656 0-8.101563-3.640625-8.101563-8.113281 0-4.46875 3.628907-8.097656 8.101563-8.097656h.167969c4.46875 0 8.101562 3.628906 8.101562 8.109374 0 4.460938-3.632812 8.101563-8.101562 8.101563zm0 0"/><path d="m158.5 498.179688c-3.316406-8.089844-15.152344-8.035157-18.46875 0-1.628906 3.9375-.523438 8.605468 2.707031 11.386718 3.242188 2.789063 7.996094 3.1875 11.667969 1.003906 4.195312-2.496093 5.96875-7.890624 4.09375-12.390624zm0 0"/><path d="m33.363281 434.78125c.183594-.125.355469-.261719.527344-.398438-.171875.136719-.34375.273438-.527344.398438zm0 0"/><path d="m33.890625 434.382812c.039063-.03125.078125-.066406.117187-.097656 0 0 0 .003906.003907.003906-.039063.03125-.082031.0625-.121094.09375zm0 0"/><path d="m32.730469 421.050781c.246093.136719.484375.292969.710937.453125-.230468-.160156-.464844-.316406-.710937-.453125zm0 0"/><path d="m32.570312 435.269531c.277344-.144531.539063-.3125.792969-.488281-.253906.179688-.515625.34375-.792969.488281zm0 0"/></svg>