<svg  viewBox="0 0 512 512.001" fill="#ffffff" xmlns="http://www.w3.org/2000/svg"><path d="m497 294.9375h-60.953125c-13.640625 0-25.492187 7.566406-31.386719 18.609375l-19.355468-7.164063c-9.824219-9.378906-25.515626-16.507812-43.835938-19.804687-24.289062-4.367187-52.496094-1.945313-81.574219 7.007813-2.554687.785156-5.371093 1.054687-8.132812.769531-10.148438-1.035157-24.917969-3.378907-40.554688-5.863281-15.066406-2.390626-30.640625-4.863282-44.542969-6.578126-18.347656-2.253906-31.265624 4.105469-39.132812 19.402344l-67.382812-27.480468c-13.203126-5.34375-28.269532-4.078126-40.304688 3.382812-12.425781 7.703125-19.84375 20.792969-19.84375 35.015625v16.894531c0 17.488282 7.046875 34.019532 19.84375 46.542969l102.183594 100c.058594.054687.121094.113281.179687.171875 15.972657 15.367188 37.820313 23.886719 60.25 23.886719 4.214844 0 8.449219-.300781 12.671875-.914063l137.695313-19.96875c11.730469-.414062 23.226562-3.71875 33.707031-9.652344l34.746094 14.605469c3.027344 16.019531 17.460937 28.199219 34.769531 28.199219h60.953125c8.285156 0 15-6.714844 15-15v-187.0625c0-8.285156-6.714844-15-15-15zm-140.667969 145.214844c-7.660156 5.523437-16.351562 8.539062-25.128906 8.730468-.613281.011719-1.226563.0625-1.832031.148438l-138.550782 20.09375c-17.582031 2.550781-35.433593-3.007812-47.78125-14.871094-.011718-.007812-.019531-.015625-.027343-.023437l-102.183594-100c-6.984375-6.832031-10.828125-15.746094-10.828125-25.101563v-16.894531c0-3.824219 2.058594-7.292969 5.652344-9.519531 3.929687-2.4375 8.882812-2.839844 13.203125-1.085938l73.273437 29.882813c2.328125 12.898437 8.734375 24.796875 18.648438 34.269531 12.15625 11.617188 28.246094 18.28125 45.390625 18.828125l73.914062 10.507813c1.355469.191406 2.734375.292968 4.097657.292968 8.285156 0 15-6.71875 15-15 0-8.257812-6.667969-14.953125-14.914063-15l-74.734375-10.621094c-.609375-.089843-1.222656-.136718-1.835938-.148437-19.152343-.351563-34.902343-14.167969-36.425781-31.335937 2.105469-8.382813 4.3125-10.65625 4.960938-11.160157 1.246093-.96875 4.773437-.703125 6.765625-.457031 13.378906 1.648438 28.695312 4.082031 43.507812 6.433594 16.058594 2.554687 31.230469 4.960937 42.21875 6.082031 6.816406.691406 13.546875.039063 19.996094-1.945313 54.175781-16.671874 88.652344-2.585937 96.859375 6.851563 1.648437 1.894531 3.75 3.347656 6.109375 4.222656l28.996094 10.734375v106.945313l-29.769532-12.515625c-4.820312-2.027344-10.34375-1.394532-14.582031 1.65625zm125.667969 41.847656h-45.953125c-2.90625 0-5.363281-2.035156-5.363281-4.445312v-3.914063c0-.054687 0-.105469 0-.15625v-144.097656c0-2.410157 2.457031-4.445313 5.363281-4.445313h45.953125zm0 0"/><path d="m104.34375 190.304688c0 34.59375 28.144531 62.734374 62.734375 62.734374s62.730469-28.140624 62.730469-62.734374c0-34.589844-28.144532-62.734376-62.730469-62.734376-34.59375 0-62.734375 28.144532-62.734375 62.734376zm62.734375-32.734376c18.046875 0 32.730469 14.683594 32.730469 32.734376 0 18.050781-14.683594 32.734374-32.730469 32.734374-18.050781 0-32.734375-14.683593-32.734375-32.734374 0-18.050782 14.683594-32.734376 32.734375-32.734376zm0 0"/><path d="m301.914062 174.503906c34.589844 0 62.730469-28.140625 62.730469-62.734375s-28.140625-62.734375-62.730469-62.734375c-34.589843 0-62.734374 28.140625-62.734374 62.734375s28.140624 62.734375 62.734374 62.734375zm0-95.46875c18.046876 0 32.730469 14.683594 32.730469 32.734375s-14.683593 32.734375-32.730469 32.734375c-18.050781 0-32.734374-14.683594-32.734374-32.734375s14.683593-32.734375 32.734374-32.734375zm0 0"/><path d="m80.160156 125.472656c34.589844 0 62.730469-28.144531 62.730469-62.738281 0-34.589844-28.140625-62.734375-62.730469-62.734375-34.59375 0-62.734375 28.144531-62.734375 62.734375 0 34.59375 28.140625 62.738281 62.734375 62.738281zm0-95.472656c18.046875 0 32.730469 14.683594 32.730469 32.734375s-14.683594 32.734375-32.730469 32.734375c-18.050781 0-32.734375-14.683594-32.734375-32.734375s14.683594-32.734375 32.734375-32.734375zm0 0"/></svg>