<svg height="512pt" viewBox="-23 0 512 512" width="512pt" xmlns="http://www.w3.org/2000/svg"><path d="m264.308594 23.4375h-.59375c-4.175782 0-7.558594 3.382812-7.558594 7.554688 0 4.175781 3.382812 7.558593 7.558594 7.558593h.59375c4.175781 0 7.558594-3.382812 7.558594-7.558593 0-4.171876-3.382813-7.554688-7.558594-7.554688zm0 0"/><path d="m239.539062 23.4375h-.597656c-4.171875 0-7.554687 3.382812-7.554687 7.554688 0 4.175781 3.382812 7.558593 7.554687 7.558593h.597656c4.171876 0 7.554688-3.382812 7.554688-7.558593.003906-4.171876-3.382812-7.554688-7.554688-7.554688zm0 0"/><path d="m61.464844 164.390625c1.671875 0 3.058594-.59375 4.195312-1.757813 1.132813-1.160156 1.699219-2.605468 1.699219-4.308593l-.226563-28.167969 23.75 31.570312c1.390626 1.785157 2.949219 2.664063 4.707032 2.664063 1.726562 0 3.144531-.566406 4.304687-1.699219 1.164063-1.132812 1.730469-2.605468 1.730469-4.363281v-43.816406c0-.90625-.140625-1.726563-.453125-2.4375-.28125-.707031-.707031-1.359375-1.246094-1.953125-1.164062-1.21875-2.578125-1.84375-4.195312-1.84375-1.617188 0-3.003907.652344-4.195313 1.898437-1.164062 1.277344-1.757812 2.722657-1.757812 4.335938l.226562 28.171875-23.75-31.429688c-1.417968-1.929687-3.03125-2.890625-4.847656-2.890625-1.671875 0-3.085938.59375-4.222656 1.8125-1.160156 1.21875-1.726563 2.722657-1.726563 4.476563v43.363281c0 1.8125.59375 3.34375 1.8125 4.5625 1.246094 1.21875 2.636719 1.8125 4.195313 1.8125zm0 0"/><path d="m127.074219 163.710938h19.386719c1.589843 0 2.890624-.539063 3.941406-1.585938 1.046875-1.078125 1.585937-2.351562 1.585937-3.882812 0-.824219-.140625-1.53125-.425781-2.210938-.3125-.652344-.707031-1.21875-1.191406-1.730469-1.132813-1.132812-2.4375-1.671875-3.910156-1.671875h-13.519532v-10.851562h11.847656c1.617188 0 2.949219-.566406 3.996094-1.644532 1.050782-1.078124 1.585938-2.378906 1.585938-3.910156 0-1.476562-.535156-2.75-1.613282-3.882812-1.078124-1.105469-2.410156-1.644532-3.96875-1.644532h-11.902343v-10.488281h13.234375c1.417968 0 2.664062-.566406 3.742187-1.671875 1.019531-1.21875 1.53125-2.550781 1.53125-4.023437 0-1.53125-.511719-2.832031-1.53125-3.910157-1.019531-1.078124-2.296875-1.644531-3.742187-1.644531h-19.128906c-1.671876 0-3.089844.652344-4.28125 1.898438-1.160157 1.277343-1.757813 2.75-1.757813 4.421875v42.199218c0 1.785157.597656 3.257813 1.757813 4.449219 1.191406 1.191407 2.636718 1.785157 4.363281 1.785157zm0 0"/><path d="m176.703125 157.703125c1.019531 4.449219 3.65625 6.6875 7.851563 6.6875 4.136718 0 6.773437-2.039063 7.964843-6.148437l8.21875-28.257813 8.246094 28.257813c1.277344 4.109374 3.882813 6.148437 7.851563 6.148437 4.222656 0 6.859374-2.238281 7.878906-6.6875l9.550781-41.746094c.117187-.3125.144531-.734375.144531-1.304687 0-1.699219-.566406-3.171875-1.757812-4.390625-1.164063-1.21875-2.578125-1.816407-4.195313-1.816407-3.289062 0-5.300781 1.929688-6.007812 5.753907l-6.492188 31.203125-9.183593-32.109375c-.933594-3.285157-2.945313-4.929688-6.035157-4.929688-2.976562 0-4.960937 1.644531-5.953125 4.929688l-9.324218 32.109375-6.402344-31.203125c-.878906-3.824219-2.921875-5.753907-6.125-5.753907-1.644532 0-3.058594.597657-4.164063 1.785157-1.136719 1.191406-1.703125 2.664062-1.703125 4.421875 0 .566406.085938.992187.230469 1.304687zm0 0"/><path d="m254.503906 162.125c3.316406 1.613281 7.480469 2.40625 12.5 2.40625 6.121094 0 11.023438-1.671875 14.734375-5.042969 3.714844-3.371093 5.558594-7.738281 5.558594-13.09375 0-5.722656-2.183594-9.945312-6.550781-12.667969-2.292969-1.53125-5.78125-2.945312-10.429688-4.25-3.597656-1.078124-5.75-1.871093-6.488281-2.4375-1.019531-.851562-1.53125-1.785156-1.53125-2.804687 0-1.332031.566406-2.410156 1.730469-3.316406 1.132812-.878907 2.550781-1.332031 4.222656-1.332031.964844 0 2.382812.253906 4.195312.765624l2.125.761719c1.757813.597657 3.0625.910157 3.882813.910157 1.472656 0 2.722656-.570313 3.742187-1.703126.992188-1.132812 1.5-2.492187 1.5-4.050781 0-2.351562-1.386718-4.28125-4.164062-5.808593-2.777344-1.5625-6.207031-2.324219-10.316406-2.324219-5.640625 0-10.316406 1.613281-13.972656 4.84375-3.6875 3.257812-5.527344 7.367187-5.527344 12.386719 0 4.957031 1.8125 8.644531 5.441406 11.078124 1.871094 1.277344 5.300781 2.636719 10.289062 4.109376 3.230469 1.019531 5.410157 1.757812 6.488282 2.269531 1.078125.507812 1.8125 1.105469 2.183594 1.8125.394531.707031.59375 1.558593.59375 2.523437 0 1.726563-.679688 3.117188-2.039063 4.164063-1.390625 1.078125-3.089844 1.585937-5.074219 1.585937-2.011718 0-4.589844-.566406-7.738281-1.726562-2.605469-.964844-4.335937-1.445313-5.214844-1.445313-1.472656 0-2.691406.566407-3.683593 1.671875-.964844 1.105469-1.476563 2.492188-1.476563 4.164063v.398437c0 2.464844 1.671875 4.507813 5.019531 6.152344zm0 0"/><path d="m55.457031 211.027344h90.550781c4.175782 0 7.558594-3.382813 7.558594-7.554688s-3.382812-7.558594-7.558594-7.558594h-90.550781c-4.175781 0-7.558593 3.382813-7.558593 7.558594 0 4.171875 3.382812 7.554688 7.558593 7.554688zm0 0"/><path d="m55.457031 249.910156h90.550781c4.175782 0 7.558594-3.382812 7.558594-7.554687s-3.382812-7.558594-7.558594-7.558594h-90.550781c-4.175781 0-7.558593 3.382813-7.558593 7.558594 0 4.171875 3.382812 7.554687 7.558593 7.554687zm0 0"/><path d="m55.457031 288.820312h90.550781c4.175782 0 7.558594-3.382812 7.558594-7.554687 0-4.175781-3.382812-7.558594-7.558594-7.558594h-90.550781c-4.175781 0-7.558593 3.382813-7.558593 7.558594 0 4.171875 3.382812 7.554687 7.558593 7.554687zm0 0"/><path d="m249.941406 312.617188h-194.484375c-4.175781 0-7.558593 3.386718-7.558593 7.558593s3.382812 7.558594 7.558593 7.558594h194.484375c4.171875 0 7.554688-3.382813 7.554688-7.558594 0-4.171875-3.382813-7.558593-7.554688-7.558593zm0 0"/><path d="m249.941406 351.527344h-194.484375c-4.175781 0-7.558593 3.386718-7.558593 7.558594 0 4.171874 3.382812 7.558593 7.558593 7.558593h194.484375c4.171875 0 7.554688-3.382812 7.554688-7.558593 0-4.175782-3.382813-7.558594-7.554688-7.558594zm0 0"/><path d="m249.941406 390.441406h-194.484375c-4.175781 0-7.558593 3.382813-7.558593 7.554688 0 4.175781 3.382812 7.558594 7.558593 7.558594h194.484375c4.171875 0 7.554688-3.382813 7.554688-7.558594 0-4.171875-3.382813-7.554688-7.554688-7.554688zm0 0"/><path d="m465.464844 387.503906-6.910156-14.722656c-.773438-1.65625-1.820313-3.101562-3.078126-4.277344 3.171876-17.308594-11.15625-50.539062-27.332031-84.15625-.921875-1.921875-1.699219-3.53125-2.277343-4.769531-5.910157-12.566406-15.039063-15.105469-19.957032-15.503906-5.859375-.472657-11.808594 1.546875-16.34375 5.34375-7.902344-15.15625-22.375-16.847657-32.679687-11.890625-3.957031 1.902344-7.175781 4.609375-9.507813 7.765625-4.09375-2.550781-8.882812-3.878907-13.757812-3.777344v-229.953125c.003906-17.40625-14.167969-31.5625-31.589844-31.5625h-270.46875c-17.402344 0-31.5625 14.15625-31.5625 31.5625v448.847656c0 17.417969 14.160156 31.589844 31.5625 31.589844h270.46875c17.421875 0 31.59375-14.171875 31.59375-31.589844v-68.988281c4.597656-.347656 7.21875.3125 8.578125.898437 1.167969.503907 1.917969 1.140626 2.464844 1.90625-2.109375 3.851563-2.371094 8.820313-.273438 13.3125l6.90625 14.691407c1.695313 3.628906 4.734375 6.457031 8.339844 7.761719 1.472656.535156 2.988281.800781 4.484375.800781 1.820312 0 3.617188-.394531 5.28125-1.175781l90.472656-42.457032c3.554688-1.671875 6.050782-5.136718 6.855469-9.511718.625-3.402344.160156-7.101563-1.269531-10.144532zm-450.351563-355.941406c0-9.070312 7.378907-16.449219 16.449219-16.449219h270.46875c9.085938 0 16.476562 7.378907 16.476562 16.449219v21.519531h-303.394531zm303.398438 418.078125h-130.527344c-4.175781 0-7.558594 3.386719-7.558594 7.558594s3.382813 7.558593 7.558594 7.558593h130.527344v15.652344c0 9.082032-7.394531 16.472656-16.480469 16.472656h-270.46875c-9.070312 0-16.449219-7.390624-16.449219-16.472656v-15.652344h138.238281c4.171876 0 7.554688-3.386718 7.554688-7.558593 0-4.175781-3.382812-7.558594-7.554688-7.558594h-138.238281v-381.445313h303.398438v198.714844c-1.015625.753906-1.976563 1.546875-2.835938 2.402344l-19.160156-40.800781c-2.640625-5.609375-7.117187-9.769531-12.375-12.113281v-16.496094c0-6.839844-5.566406-12.40625-12.40625-12.40625h-84.089844c-6.824219 0-12.375 5.566406-12.375 12.40625v70.253906c0 6.839844 5.550781 12.402344 12.375 12.402344h79.257813l15.84375 33.738281c1.941406 4.140625 4.144531 8.480469 6.273437 12.683594 6.289063 12.402343 14.902344 29.394531 12.496094 35.5625-.160156.417969-.460937 1.191406-2.332031 1.894531-.183594.066406-.367188.144531-.542969.226562l-17.382813 8.109376c-12.097656 5.664062-17.167968 17.863281-12.617187 30.355468 3.613281 9.925782 13.074219 18.609375 23.902344 18.609375 1.734375 0 3.503906-.222656 5.285156-.699219.433594-.113281.859375-.269531 1.265625-.460937 7.683594-3.609375 14.085938-6.117187 19.417969-7.839844zm-67.050781-199.964844 8.34375 17.769531h-69.421876v-64.835937h78.640626v12.113281c-1.890626.386719-3.765626.996094-5.589844 1.851563-6 2.804687-10.550782 7.796875-12.820313 14.058593-2.273437 6.269532-1.972656 13.03125.847657 19.042969zm113.210937 185.46875-6.289063-13.375 31.457032-14.746093c3.78125-1.773438 5.40625-6.269532 3.636718-10.050782-1.773437-3.777344-6.273437-5.40625-10.050781-3.632812l-26.292969 12.324218c-1.8125-2.613281-4.589843-5.339843-8.933593-7.214843-5.980469-2.585938-13.691407-2.925781-23.234375-1.03125-.304688.042969-.609375.105469-.902344.1875-8.683594 1.828125-18.851562 5.453125-30.636719 10.941406-4.191406.664063-8.859375-3.851563-10.585937-8.585937-1.90625-5.238282-.28125-9.105469 4.816406-11.492188l17.132812-7.992188c5.203126-2.03125 8.9375-5.636718 10.808594-10.445312 4.855469-12.460938-3.863281-29.667969-13.101562-47.882812-2.171875-4.285157-4.222656-8.332032-6.066406-12.265626l-17.632813-37.554687c-.144531-.367187-.308594-.726563-.503906-1.066406l-13.148438-28.003907c-1.105469-2.347656-1.21875-5-.324219-7.472656.894532-2.460937 2.671876-4.417968 5.03125-5.519531 4.867188-2.289063 10.695313-.191406 12.984376 4.675781l27.40625 58.371094c.058593.128906.117187.253906.179687.378906l6.707031 14.28125c1.773438 3.78125 6.277344 5.402344 10.050782 3.628906 3.78125-1.773437 5.40625-6.273437 3.628906-10.050781l-6.523438-13.898437c-1.332031-5.449219 2.484375-8.457032 5.246094-9.875.050781-.023438.105469-.046875.152344-.074219.109375-.054687.222656-.113281.328125-.164063 4.890625-2.292968 10.730469-.183593 13.019531 4.695313l1.5 3.203125c.140625.339844.289062.679688.449219 1.015625.078125.160156.160156.316406.246093.46875l4.972657 10.617187c1.773437 3.78125 6.273437 5.40625 10.050781 3.636719 3.78125-1.769531 5.40625-6.269531 3.636719-10.046875l-5.464844-11.664062c-1.230469-3.472656 2.101563-6.914063 5.015625-8.3125 2.488281-1.195313 8.734375-3.019532 12.980469 5.757812l7.101562 15.140625c.0625.140625.125.277344.191407.414063.003906.011718.011718.019531.015624.027344l3.175782 6.777343c1.773437 3.78125 6.277344 5.40625 10.050781 3.632813 3.78125-1.769532 5.40625-6.269532 3.636719-10.050782l-3.320313-7.078124c-.414062-.960938-.207031-2.054688.613281-3.253907 1.5-2.1875 4.300782-3.582031 6.8125-3.375 3.664063.292969 6.097657 3.898438 7.492188 6.863281.59375 1.265626 1.386719 2.921876 2.339844 4.894532 4.53125 9.417968 12.964844 26.949218 19.058594 43.378906 9.027343 24.328125 7.265624 31.1875 6.808593 32.335938l-25.566406 11.984374c-3.777344 1.769532-5.40625 6.269532-3.632813 10.046876 1.769532 3.78125 6.269532 5.40625 10.046876 3.636718l24.402343-11.4375 6.140625 13.082032c.035156.074218.0625.179687.078125.296874zm0 0"/></svg>